<!DOCTYPE svg PUBLIC "-//W3C//DTD SVG 1.1//EN" "http://www.w3.org/Graphics/SVG/1.1/DTD/svg11.dtd">
<!-- Uploaded to: SVG Repo, www.svgrepo.com, Transformed by: SVG Repo Mixer Tools -->
<svg fill="#ffd169" height="800px" width="800px" version="1.1" id="Layer_1" xmlns="http://www.w3.org/2000/svg" xmlns:xlink="http://www.w3.org/1999/xlink" viewBox="0 0 512 512" xml:space="preserve">
<g id="SVGRepo_bgCarrier" stroke-width="0"/>
<g id="SVGRepo_tracerCarrier" stroke-linecap="round" stroke-linejoin="round"/>
<g id="SVGRepo_iconCarrier"> <g> <g> <g> <path d="M472.178,34.62H39.822C17.864,34.62,0,52.485,0,74.442c0,17.955,0,345.233,0,363.115 c0,21.958,17.864,39.822,39.822,39.822h432.356c21.958,0,39.822-17.864,39.822-39.822c0-17.89,0-345.165,0-363.115 C512,52.485,494.136,34.62,472.178,34.62z M477.867,437.557c0,3.137-2.552,5.689-5.689,5.689H39.822 c-3.137,0-5.689-2.552-5.689-5.689V153.839h443.733V437.557z M477.867,119.706H34.133V74.442c0-3.137,2.552-5.689,5.689-5.689 h432.356c3.137,0,5.689,2.552,5.689,5.689V119.706z"/> <circle cx="71.805" cy="94.231" r="12.836"/> <circle cx="112.959" cy="94.231" r="12.836"/> <circle cx="154.112" cy="94.231" r="12.836"/> <path d="M263.523,330.201l73.698,73.698c6.664,6.665,17.471,6.666,24.136,0c6.665-6.665,6.665-17.471,0-24.136l-73.698-73.698 c18.695-29.706,15.142-69.506-10.702-95.348c-29.991-29.992-78.791-29.991-108.783,0c-29.992,29.991-29.992,78.791,0,108.783 C193.819,345.144,233.538,349.07,263.523,330.201z M192.31,234.853c16.684-16.683,43.827-16.683,60.512,0 c16.683,16.683,16.683,43.828,0,60.51c-16.683,16.683-43.828,16.683-60.512,0C175.626,278.682,175.626,251.535,192.31,234.853z"/> </g> </g> </g> </g>
</svg>